<?xml version="1.0" encoding="UTF-8"?>
<!DOCTYPE svg PUBLIC "-//W3C//DTD SVG 1.1//EN" "http://www.w3.org/Graphics/SVG/1.1/DTD/svg11.dtd">
<!-- Creator: CorelDRAW 2019 (64-Bit) -->
<svg xmlns="http://www.w3.org/2000/svg" xml:space="preserve" width="6.806mm" height="4.2673mm" version="1.1" style="shape-rendering:geometricPrecision; text-rendering:geometricPrecision; image-rendering:optimizeQuality; fill-rule:evenodd; clip-rule:evenodd"
viewBox="0 0 244.14 153.07"
 xmlns:xlink="http://www.w3.org/1999/xlink"
 xmlns:xodm="http://www.corel.com/coreldraw/odm/2003">
 <defs>
  <style type="text/css">
   <![CDATA[
    .fil0 {fill:#0098DA}
   ]]>
  </style>
 </defs>
 <g id="Capa_x0020_1">
  <metadata id="CorelCorpID_0Corel-Layer"/>
  <g id="_879326032">
   <path class="fil0" d="M122.42 97.41l54.84 -48.16c2.8,-2.17 4,-4.04 6.75,-6.23l48.45 -43.03 -220.78 0.04 103.87 91.7c3.2,3.18 3.15,3.69 6.87,5.66z"/>
   <path class="fil0" d="M87.89 85.86c-0.83,0.51 -74.16,63.83 -76.26,67.18l220.88 0.03c-2.08,-3.35 -2.19,-2.47 -5.12,-5.03l-71.14 -62.18c-6.9,3.7 -28.01,26.63 -35.25,29.32l-33.11 -29.32z"/>
   <path class="fil0" d="M-0 144.46l77.49 -66.87c-2.56,-4.78 -27.28,-25.6 -33.37,-30.54l-9.91 -8.56c-5.8,-4.69 -30.16,-27.68 -34.21,-29.89l0 135.87z"/>
   <path class="fil0" d="M244.14 144.46l0 -135.87c-3.53,1.93 -6.13,5.34 -9.52,7.97l-33.99 30c-6.7,5.67 -31.16,25.78 -33.98,31.03 3.69,2.11 6.19,4.23 9.61,7.68l67.88 59.19z"/>
  </g>
 </g>
</svg>
