<?xml version="1.0" encoding="UTF-8"?>
<!DOCTYPE svg PUBLIC "-//W3C//DTD SVG 1.1//EN" "http://www.w3.org/Graphics/SVG/1.1/DTD/svg11.dtd">
<!-- Creator: CorelDRAW 2019 (64-Bit) -->
<svg xmlns="http://www.w3.org/2000/svg" xml:space="preserve" width="5.5869mm" height="5.5857mm" version="1.1" style="shape-rendering:geometricPrecision; text-rendering:geometricPrecision; image-rendering:optimizeQuality; fill-rule:evenodd; clip-rule:evenodd"
viewBox="0 0 282.93 282.86"
 xmlns:xlink="http://www.w3.org/1999/xlink"
 xmlns:xodm="http://www.corel.com/coreldraw/odm/2003">
 <defs>
  <style type="text/css">
   <![CDATA[
    .fil0 {fill:#0098DA}
   ]]>
  </style>
 </defs>
 <g id="Capa_x0020_1">
  <metadata id="CorelCorpID_0Corel-Layer"/>
  <path class="fil0" d="M72 18.08c12.52,-2.63 103.12,-1.38 122.94,-1.29 37.71,0.16 64.15,22.32 70.12,54.99 2.11,11.56 1.26,105.52 0.96,123.92 -0.59,36.57 -22.87,63.34 -55.39,69.35 -13.21,2.44 -103.14,1.3 -123.34,1.17 -37.24,-0.25 -63.07,-22.21 -69.43,-54.85 -2.87,-14.73 -1.21,-44.24 -1.21,-60.79 0,-54.32 -11.29,-118.48 55.35,-132.49zm-71.09 189.19c3.45,38 31.9,66.59 66.67,73.43 13.58,2.67 121.14,2.59 138.59,1.25 37.86,-2.92 67.39,-31.63 74.37,-66.19 2.75,-13.63 2.96,-122.28 1.41,-139.11 -3.49,-37.86 -32.22,-67.92 -66.63,-74.41 -13.78,-2.6 -122.85,-2.81 -139.59,-1.27 -37.48,3.44 -67.56,32.57 -73.74,67.16 -2.32,12.98 -2.51,123.38 -1.08,139.14z"/>
  <path class="fil0" d="M89.14 149.12c-8.37,-71.66 95.31,-81.3 104,-15.79 4.19,31.6 -17.04,56.33 -43.76,60.27 -31.41,4.63 -57.21,-18.54 -60.24,-44.48zm36.57 -74.42c-32.42,7.35 -61.76,40.7 -51.23,82.96 7.86,31.55 40.6,61.23 82.41,50.86 87.85,-21.79 58,-154.03 -31.18,-133.82z"/>
  <path class="fil0" d="M213.42 51.15c11.41,-6.64 20.6,11.49 9.41,16.9 -12.43,6.01 -19.74,-10.89 -9.41,-16.9zm-3.83 -15.84c-31.05,10.1 -17.72,60.23 17.91,48.92 10.92,-3.47 20.74,-17.86 15.68,-32.78 -4.13,-12.16 -16.72,-21.62 -33.59,-16.13z"/>
  <path class="fil0" d="M213.42 51.15c-10.33,6.01 -3.02,22.91 9.41,16.9 11.18,-5.41 2,-23.54 -9.41,-16.9z"/>
 </g>
</svg>
