<?xml version="1.0" encoding="UTF-8"?>
<!DOCTYPE svg PUBLIC "-//W3C//DTD SVG 1.1//EN" "http://www.w3.org/Graphics/SVG/1.1/DTD/svg11.dtd">
<!-- Creator: CorelDRAW 2019 (64-Bit) -->
<svg xmlns="http://www.w3.org/2000/svg" xml:space="preserve" width="5.6183mm" height="5.6018mm" version="1.1" style="shape-rendering:geometricPrecision; text-rendering:geometricPrecision; image-rendering:optimizeQuality; fill-rule:evenodd; clip-rule:evenodd"
viewBox="0 0 87.03 86.77"
 xmlns:xlink="http://www.w3.org/1999/xlink"
 xmlns:xodm="http://www.corel.com/coreldraw/odm/2003">
 <defs>
  <style type="text/css">
   <![CDATA[
    .fil0 {fill:#0098DA}
   ]]>
  </style>
 </defs>
 <g id="Capa_x0020_1">
  <metadata id="CorelCorpID_0Corel-Layer"/>
  <path class="fil0" d="M-0 19.57l0 3.71c0.62,1.56 -0.57,5.21 4.48,15.9 2.15,4.56 5.36,8.68 8.05,12.24 0.71,0.95 1.59,1.92 2.35,2.8 0.81,0.93 1.53,1.85 2.37,2.77 0.38,0.42 0.88,0.86 1.29,1.35 3.24,3.87 10.07,10.21 14.29,13.52 6.82,5.36 16.35,11.4 26.92,13.81 6.74,1.53 11.37,1.71 17.24,-1.01 0.9,-0.42 4.15,-2.36 4.7,-2.95 1.16,-1.24 3.14,-3.05 3.78,-3.86 1.22,-1.57 1.1,-2.6 1.55,-3.47l0 -2.15c-0.83,-1.17 0.41,-1.14 -2.98,-4.59l-11.28 -11.24c-1.22,-1.21 -2.17,-2.48 -4.54,-2.98 -4.43,-0.92 -6.84,2.37 -9.56,5.12 -0.68,0.69 -3.16,3.33 -3.79,3.6 -0.89,-0.64 -3.51,-1.94 -4.83,-2.77 -6.55,-4.11 -11.3,-7.64 -16.32,-13.7 -2.25,-2.71 -7.81,-10.73 -8.86,-13.72l3.84 -3.79c2.76,-2.7 6.04,-5.4 4.75,-9.9 -0.56,-1.97 -1.93,-3.19 -3.15,-4.35 -2.57,-2.43 -4.79,-4.88 -7.58,-7.57 -1.23,-1.19 -2.48,-2.42 -3.76,-3.75 -1.32,-1.38 -2.42,-2.29 -4.79,-2.57 -3.8,-0.21 -5.91,2.15 -8.2,4.58 -1.95,2.06 -0.66,0.77 -1.84,2.33 -1.72,2.29 -3.18,5.97 -3.67,8.95 -0.11,0.69 -0.33,3.37 -0.47,3.7z"/>
 </g>
</svg>
