<?xml version="1.0" encoding="UTF-8"?>
<!DOCTYPE svg PUBLIC "-//W3C//DTD SVG 1.1//EN" "http://www.w3.org/Graphics/SVG/1.1/DTD/svg11.dtd">
<!-- Creator: CorelDRAW 2019 (64-Bit) -->
<svg xmlns="http://www.w3.org/2000/svg" xml:space="preserve" width="4.512mm" height="4.016mm" version="1.1" style="shape-rendering:geometricPrecision; text-rendering:geometricPrecision; image-rendering:optimizeQuality; fill-rule:evenodd; clip-rule:evenodd"
viewBox="0 0 31.91 28.4"
 xmlns:xlink="http://www.w3.org/1999/xlink"
 xmlns:xodm="http://www.corel.com/coreldraw/odm/2003">
 <defs>
  <style type="text/css">
   <![CDATA[
    .fil0 {fill:white}
   ]]>
  </style>
 </defs>
 <g id="Capa_x0020_1">
  <metadata id="CorelCorpID_0Corel-Layer"/>
  <path class="fil0" d="M20.51 3.41c-2.01,-1.02 -3.33,-4.81 -6,-2.87l-12.47 11.78c-0.74,0.73 -2.2,1.58 -2.02,2.61 1.03,0.5 2.92,0.21 4.22,0.23 0.15,2 0.06,4.57 0.04,6.62 -0.04,7.31 -0.98,6.58 5.11,6.59 1.74,0 3.1,0.34 3.21,-1.72 0.32,-5.82 -1.31,-6.24 3.32,-6.26 4.69,-0.02 2.96,0.56 3.31,6.26 0.13,2.03 1.49,1.72 3.22,1.72 1.51,0 3.31,0.15 4.64,-0.26 1.16,-1.62 0.27,-10.18 0.51,-12.95 1.41,0.01 2.92,0.17 4.29,-0.18 0.07,-1.15 -0.56,-1.32 -1.19,-1.88 -6.57,-5.91 -5.04,-3.84 -5.04,-10.74 0,-2.66 -1.64,-2.36 -4.26,-2.08 -1.29,1.11 -0.66,1.37 -0.91,3.11z"/>
 </g>
</svg>
