<?xml version="1.0" encoding="UTF-8"?>
<!DOCTYPE svg PUBLIC "-//W3C//DTD SVG 1.1//EN" "http://www.w3.org/Graphics/SVG/1.1/DTD/svg11.dtd">
<!-- Creator: CorelDRAW 2019 (64-Bit) -->
<svg xmlns="http://www.w3.org/2000/svg" xml:space="preserve" width="3.1091mm" height="4.3666mm" version="1.1" style="shape-rendering:geometricPrecision; text-rendering:geometricPrecision; image-rendering:optimizeQuality; fill-rule:evenodd; clip-rule:evenodd"
viewBox="0 0 28.34 39.81"
 xmlns:xlink="http://www.w3.org/1999/xlink"
 xmlns:xodm="http://www.corel.com/coreldraw/odm/2003">
 <defs>
  <style type="text/css">
   <![CDATA[
    .fil0 {fill:white}
   ]]>
  </style>
 </defs>
 <g id="Capa_x0020_1">
  <metadata id="CorelCorpID_0Corel-Layer"/>
  <path class="fil0" d="M6.98 21.38c-0.32,0.16 -0.71,0.13 -0.94,-0.17 -0.23,-0.3 -0.24,-0.66 -0.06,-0.96 -0.03,-0.2 -0.36,-0.6 -0.48,-0.78 -1.25,-2.09 -1.77,-4.53 -1.34,-7 0.39,-2.22 1.19,-3.49 2.41,-5.03 0.19,-0.24 0.41,-0.38 0.61,-0.62 0.15,-0.17 0.45,-0.42 0.66,-0.57 3.98,-2.98 8.87,-2.99 12.76,0.1 4.02,3.18 5.04,9.47 1.63,13.98l-0.87 1.01c-3.37,3.43 -8.75,4.07 -13.05,1.15 -0.27,-0.18 -0.46,-0.36 -0.69,-0.54 -0.28,-0.22 -0.39,-0.39 -0.59,-0.52l-0.06 -0.03zm-6.98 -7.19c-0.01,2.88 0.97,5.77 2.28,7.69 0.68,1 1.32,1.98 1.98,2.99l9.89 14.93c0.26,-0.24 9.66,-14.53 10.2,-15.35l1.71 -2.57c6.13,-9.71 -0.87,-21.88 -11.92,-21.88 -3.97,0 -7.35,1.56 -10.04,4.2 -2.17,2.13 -4.09,5.66 -4.1,9.99z"/>
 </g>
</svg>
