<?xml version="1.0" encoding="UTF-8"?>
<!DOCTYPE svg PUBLIC "-//W3C//DTD SVG 1.1//EN" "http://www.w3.org/Graphics/SVG/1.1/DTD/svg11.dtd">
<!-- Creator: CorelDRAW 2019 (64-Bit) -->
<svg xmlns="http://www.w3.org/2000/svg" xml:space="preserve" width="4.6341mm" height="4.6398mm" version="1.1" style="shape-rendering:geometricPrecision; text-rendering:geometricPrecision; image-rendering:optimizeQuality; fill-rule:evenodd; clip-rule:evenodd"
viewBox="0 0 50.42 50.48"
 xmlns:xlink="http://www.w3.org/1999/xlink"
 xmlns:xodm="http://www.corel.com/coreldraw/odm/2003">
 <defs>
  <style type="text/css">
   <![CDATA[
    .fil2 {fill:none}
    .fil1 {fill:white}
    .fil0 {fill:white;fill-rule:nonzero}
   ]]>
  </style>
 </defs>
 <g id="Capa_x0020_1">
  <metadata id="CorelCorpID_0Corel-Layer"/>
  <path class="fil0" d="M25.21 0c6.98,0 12.93,2.48 17.84,7.4 4.92,4.92 7.37,10.88 7.37,17.87 0,6.95 -2.44,12.89 -7.37,17.81 -4.91,4.94 -10.86,7.4 -17.84,7.4 -6.94,0 -12.89,-2.46 -17.82,-7.4 -4.92,-4.92 -7.38,-10.86 -7.38,-17.81 0,-6.99 2.46,-12.95 7.38,-17.87 4.94,-4.92 10.88,-7.4 17.82,-7.4zm0 4.42c-5.75,0 -10.68,2.02 -14.73,6.1 -4.08,4.08 -6.11,8.98 -6.11,14.75 0,5.75 2.04,10.66 6.11,14.72 4.06,4.04 8.98,6.08 14.73,6.08 5.75,0 10.68,-2.04 14.75,-6.08 4.06,-4.06 6.1,-8.97 6.1,-14.72 0,-5.77 -2.04,-10.67 -6.1,-14.75 -4.08,-4.08 -9,-6.1 -14.75,-6.1z"/>
  <path class="fil1" d="M37.52 17.93c-0.94,-1.58 -2.97,-4.58 -5.01,-4.61 -1.33,-0.02 -2.43,1.27 -1.93,2.71 0.48,1.38 3.12,2.25 4.37,6.08 2.13,6.56 -2.16,11.37 -6.71,12.88 -9.51,3.14 -18.93,-9.36 -9.15,-17.99 0.97,-0.85 1.25,-2.73 0.04,-3.42 -2.09,-1.2 -4.99,2.31 -5.98,3.91 -6.51,10.47 2.17,23.98 14.56,21.74 9.69,-1.76 14.88,-12.79 9.82,-21.3z"/>
  <line class="fil2" x1="25.21" y1="10.27" x2="25.21" y2= "23.86" />
  <path class="fil0" d="M23.1 9.94c0,-1.16 0.94,-2.11 2.11,-2.11 1.16,0 2.11,0.94 2.11,2.11l0 13.58c0,1.16 -0.94,2.11 -2.11,2.11 -1.16,0 -2.11,-0.94 -2.11,-2.11l0 -13.58z"/>
 </g>
</svg>
